:SAMPLES-PER-SECOND 30
:FULLY-SPECIFIED
:DEGREES
97
root  -64.7133 36.0413 21.7884 -143.014 -2.08168 178.924
RightUpLeg  -84.2304 -22.2611 32.1442
RightLeg  39.0455 -4.3561 -4.06187
RightFoot  -2.06682 1.10465 -13.7027
RightToes  0.00048216 0.542163 -0.142577
Spine  69.994 -2.81883 5.54337
Spine1  4.37526 2.03481 -4.59313
HEad  -48.0692 -6.71452 8.11106
LeftShoulder1  6.13595 -27.1115 -12.8444
LeftArm  -93.1968 -66.518 22.4181
LeftForeArm  8.43635 -22.3396 -4.11613
LeftHand  -0.25398 0.0180481 5.50724
RightShoulder  1.85765 13.2902 3.00984
RightArm  -77.0333 59.0119 -14.8093
RightForeArm  -19.2311 20.649 5.09956
RightHand  0.267036 5.70594 2.37853
LeftUpLeg  -81.9499 23.3668 -32.566
LeftLeg  44.6291 1.92886 2.45528
LeftFoot  -8.5996 -0.236682 12.0094
LeftToes  1.06246e-005 4.65856e-005 -8.18501e-006
98
root  -64.5997 36.3737 21.9343 -144.048 -1.92511 178.508
RightUpLeg  -82.2736 -22.9904 31.8016
RightLeg  36.6861 -4.10616 -3.54774
RightFoot  -0.974161 1.29259 -14.2288
RightToes  0.00048216 0.542163 -0.142577
Spine  69.1716 -2.62509 5.50554
Spine1  4.64361 2.0164 -3.96238
HEad  -47.576 -7.36056 8.08491
LeftShoulder1  6.36636 -27.2579 -13.5564
LeftArm  -88.2002 -66.3678 18.2002
LeftForeArm  7.15733 -22.7105 -4.36564
LeftHand  -0.25398 0.0180481 5.50724
RightShoulder  1.74229 13.0047 2.44212
RightArm  -74.6836 59.542 -11.8275
RightForeArm  -19.4849 20.3402 5.03185
RightHand  0.287282 5.33505 2.70756
LeftUpLeg  -79.8341 24.0596 -32.6619
LeftLeg  42.1429 1.78246 2.12945
LeftFoot  -7.34079 -0.376953 12.0145
LeftToes  1.06246e-005 4.65856e-005 -8.18501e-006
99
root  -64.5029 36.7556 22.0766 -145.35 -1.78587 177.975
RightUpLeg  -79.9061 -23.9863 31.2553
RightLeg  34.0075 -3.92767 -3.1045
RightFoot  0.228155 1.46 -14.3091
RightToes  0.00048216 0.542163 -0.142577
Spine  68.2896 -2.62825 5.51296
Spine1  4.76887 1.87946 -3.60459
HEad  -47.1808 -7.75297 8.19883
LeftShoulder1  6.57831 -27.2001 -14.3565
LeftArm  -82.2032 -66.2342 12.6273
LeftForeArm  5.86411 -23.2193 -4.62781
LeftHand  -0.25398 0.0180481 5.50724
RightShoulder  1.78982 13.1236 2.67945
RightArm  -71.5869 59.8525 -8.54887
RightForeArm  -19.3938 20.3827 5.08509
RightHand  0.279743 4.70871 2.84015
LeftUpLeg  -77.1485 24.8871 -32.7637
LeftLeg  39.2103 1.54655 1.73904
LeftFoot  -5.87637 -0.539128 11.9933
LeftToes  1.06246e-005 4.65856e-005 -8.18501e-006
100
root  -64.4091 37.1417 22.2224 -146.96 -1.53778 177.427
RightUpLeg  -76.8768 -24.9086 30.0765
RightLeg  31.1094 -3.76137 -2.69366
RightFoot  1.47559 1.57879 -13.8828
RightToes  0.00048216 0.542163 -0.142577
Spine  67.3175 -2.69101 5.31616
Spine1  4.8646 1.57761 -3.35101
HEad  -46.788 -7.74078 8.4164
LeftShoulder1  6.77016 -26.5415 -15.5704
LeftArm  -75.6922 -66.0336 6.62517
LeftForeArm  4.8942 -23.8027 -4.83576
LeftHand  -0.25398 0.0180481 5.50724
RightShoulder  1.94634 13.7671 3.24385
RightArm  -67.5784 59.9261 -4.61249
RightForeArm  -19.02 20.7575 5.22945
RightHand  0.260416 3.99416 2.88271
LeftUpLeg  -74.1598 25.9898 -32.8123
LeftLeg  36.2216 1.26754 1.36964
LeftFoot  -4.46087 -0.692676 11.9234
LeftToes  1.06246e-005 4.65856e-005 -8.18501e-006
101
root  -64.3192 37.4963 22.3664 -148.851 -1.2373 176.758
RightUpLeg  -73.3834 -25.6783 28.0562
RightLeg  28.3739 -3.59428 -2.33814
RightFoot  2.58968 1.69245 -13.6241
RightToes  0.00048216 0.542163 -0.142577
Spine  66.0241 -2.71687 5.27812
Spine1  4.91684 1.4769 -3.2708
HEad  -46.1215 -8.37032 8.78105
LeftShoulder1  7.11862 -26.3813 -16.9657
LeftArm  -68.1102 -65.2139 -0.841851
LeftForeArm  4.94833 -24.7615 -5.04289
LeftHand  -0.25398 0.0180481 5.50724
RightShoulder  2.26973 14.1489 5.04264
RightArm  -62.0564 59.7606 -0.32366
RightForeArm  -18.9702 21.4964 5.47818
RightHand  0.249453 3.39326 2.99419
LeftUpLeg  -70.8783 27.1651 -32.717
LeftLeg  33.3556 1.07366 1.12265
LeftFoot  -3.20298 -0.821407 11.7747
LeftToes  1.06246e-005 4.65856e-005 -8.18501e-006
102
root  -64.2413 37.8335 22.4886 -151.175 -0.880554 176.138
RightUpLeg  -69.3468 -26.3537 25.5158
RightLeg  25.9002 -3.5929 -2.12598
RightFoot  3.51193 1.81548 -13.6635
RightToes  0.00048216 0.542163 -0.142577
Spine  64.5778 -2.65519 5.30971
Spine1  5.11171 1.48331 -3.02393
HEad  -45.2577 -9.3465 8.98246
LeftShoulder1  7.59226 -26.298 -18.75
LeftArm  -60.2494 -63.6077 -8.43469
LeftForeArm  5.65842 -26.1521 -5.31721
LeftHand  -0.25398 0.0180481 5.50724
RightShoulder  2.58639 14.1995 7.01211
RightArm  -55.8862 59.4557 4.8556
RightForeArm  -18.9995 22.6201 5.74752
RightHand  0.240412 2.5986 3.2458
LeftUpLeg  -67.1307 28.5077 -32.1508
LeftLeg  30.6525 1.08297 1.04655
LeftFoot  -2.0732 -0.91307 11.3812
LeftToes  1.06246e-005 4.65856e-005 -8.18501e-006
103
root  -64.1756 38.1725 22.573 -153.955 -0.402756 175.615
RightUpLeg  -64.8645 -27.1547 22.998
RightLeg  23.597 -3.66375 -1.97447
RightFoot  4.37511 1.88129 -13.3423
RightToes  0.00048216 0.542163 -0.142577
Spine  63.3048 -2.67235 5.3418
Spine1  5.16169 1.47557 -3.03463
HEad  -44.1922 -10.2768 9.46507
LeftShoulder1  7.9303 -26.0135 -20.242
LeftArm  -52.6044 -61.2036 -15.4543
LeftForeArm  6.29005 -27.5814 -5.61204
LeftHand  -0.25398 0.0180481 5.50724
RightShoulder  2.9731 14.1615 9.49332
RightArm  -49.0591 58.9895 10.3316
RightForeArm  -19.6211 24.0039 6.06488
RightHand  0.202976 1.36276 3.3409
LeftUpLeg  -62.8297 30.1137 -31.0791
LeftLeg  28.0505 1.33297 1.11734
LeftFoot  -1.09962 -0.959192 10.7432
LeftToes  1.06246e-005 4.65856e-005 -8.18501e-006
104
root  -64.1119 38.4993 22.6166 -156.869 0.277481 174.995
RightUpLeg  -60.6636 -28.3712 21.0538
RightLeg  21.5908 -3.1363 -1.58946
RightFoot  5.37573 1.93946 -12.8769
RightToes  0.00048216 0.542163 -0.142577
Spine  61.9404 -2.64697 5.19489
Spine1  5.1394 1.38988 -3.21001
HEad  -43.1042 -11.1819 10.3793
LeftShoulder1  8.12337 -25.6088 -21.3522
LeftArm  -45.8377 -58.1683 -21.3444
LeftForeArm  6.38365 -28.7274 -5.8776
LeftHand  -0.25398 0.0180481 5.50724
RightShoulder  3.46433 14.1179 12.6352
RightArm  -41.7261 58.2808 15.4336
RightForeArm  -20.9741 25.3075 6.42298
RightHand  0.135934 0.169004 2.84974
LeftUpLeg  -58.2708 31.8787 -29.949
LeftLeg  25.4513 1.66164 1.20492
LeftFoot  -0.306649 -0.978152 10.1155
LeftToes  1.06246e-005 4.65856e-005 -8.18501e-006
105
root  -64.0523 38.7981 22.6182 -159.572 1.24373 174.266
RightUpLeg  -57.5719 -30.3185 20.163
RightLeg  20.2786 -1.22814 -0.713737
RightFoot  6.56285 2.10596 -13.0049
RightToes  0.00048216 0.542163 -0.142577
Spine  60.1737 -2.3301 4.76597
Spine1  5.1623 1.3076 -3.07817
HEad  -42.0928 -12.2602 11.257
LeftShoulder1  8.38468 -25.1874 -22.7583
LeftArm  -40.1819 -54.6895 -25.7121
LeftForeArm  5.95271 -29.7569 -6.15058
LeftHand  -0.25398 0.0180481 5.50724
RightShoulder  3.92057 13.9677 15.6884
RightArm  -34.5687 57.2846 20.2324
RightForeArm  -22.444 26.2675 6.71312
RightHand  0.0777973 -0.447296 1.94927
LeftUpLeg  -53.9637 33.8419 -29.1693
LeftLeg  22.826 1.74099 1.16864
LeftFoot  0.44226 -0.993132 9.57429
LeftToes  1.06246e-005 4.65856e-005 -8.18501e-006
106
root  -64.0197 39.0841 22.5676 -162.042 2.63232 173.733
RightUpLeg  -55.599 -33.0685 20.1672
RightLeg  20.0125 2.29459 0.740478
RightFoot  7.77883 2.04686 -11.8008
RightToes  0.00048216 0.542163 -0.142577
Spine  58.1121 -1.84092 4.19796
Spine1  5.18917 1.34327 -2.82017
HEad  -40.891 -13.3679 11.8193
LeftShoulder1  8.77931 -24.6128 -24.869
LeftArm  -35.3822 -50.8967 -28.3128
LeftForeArm  4.98715 -30.93 -6.49561
LeftHand  -0.25398 0.0180481 5.50724
RightShoulder  4.28097 13.8076 18.1752
RightArm  -28.2502 56.1638 24.7913
RightForeArm  -23.5958 26.8539 6.90294
RightHand  0.0436135 -0.842473 1.30566
LeftUpLeg  -50.0428 36.2759 -28.4555
LeftLeg  20.3033 1.65698 0.934907
LeftFoot  1.16404 -0.989244 8.945
LeftToes  1.06246e-005 4.65856e-005 -8.18501e-006
107
root  -64.0192 39.36 22.4492 -164.447 4.56509 173.527
RightUpLeg  -53.9955 -36.2082 19.9438
RightLeg  20.9684 7.16471 2.81889
RightFoot  8.72241 0.919478 -4.86699
RightToes  0.00048216 0.542163 -0.142577
Spine  56.2084 -1.31729 3.53873
Spine1  4.9196 1.57261 -2.75505
HEad  -39.0204 -14.3845 12.1373
LeftShoulder1  9.19984 -23.7971 -27.4517
LeftArm  -31.1692 -46.8106 -29.5633
LeftForeArm  3.41603 -32.2109 -6.9122
LeftHand  -0.25398 0.0180481 5.50724
RightShoulder  4.53609 13.5711 20.1592
RightArm  -22.2732 55.1534 29.4566
RightForeArm  -24.7145 27.1405 7.01893
RightHand  0.0206288 -1.68062 1.06189
LeftUpLeg  -44.9364 37.6163 -25.0961
LeftLeg  18.2262 4.21613 0.107306
LeftFoot  1.5024 -0.942591 8.2761
LeftToes  1.06246e-005 4.65856e-005 -8.18501e-006
108
root  -63.9985 39.5636 22.2538 -166.926 6.86919 173.253
RightUpLeg  -52.028 -39.1019 18.05
RightLeg  23.181 12.3736 5.55734
RightFoot  8.90934 -1.52952 8.92675
RightToes  0.00048216 0.542163 -0.142577
Spine  54.5398 -0.820362 2.39586
Spine1  4.34721 1.80199 -2.95436
HEad  -36.5919 -15.2055 12.3695
LeftShoulder1  9.31051 -22.5786 -29.5223
LeftArm  -27.9108 -42.476 -30.4668
LeftForeArm  1.63602 -33.5838 -7.37831
LeftHand  -0.25398 0.0180481 5.50724
RightShoulder  4.5985 13.1204 21.3285
RightArm  -16.0954 54.4599 35.1836
RightForeArm  -25.7243 27.0092 7.02772
RightHand  -0.00551971 -2.85015 0.727999
LeftUpLeg  -36.8326 33.9804 -16.3028
LeftLeg  16.9257 13.4151 -1.69089
LeftFoot  1.20124 -0.846709 7.62146
LeftToes  1.06246e-005 4.65856e-005 -8.18501e-006
109
root  -63.8924 39.6669 21.9975 -169.453 9.19534 172.637
RightUpLeg  -49.7968 -41.3455 14.6293
RightLeg  26.4498 16.2439 8.41378
RightFoot  8.08373 -3.95863 23.1978
RightToes  0.00048216 0.542163 -0.142577
Spine  51.9943 -0.322504 0.767909
Spine1  4.7219 1.89455 -3.08313
HEad  -34.4867 -15.996 12.55
LeftShoulder1  9.46769 -21.4492 -31.8126
LeftArm  -25.8994 -38.1225 -30.2488
LeftForeArm  0.127543 -35.1844 -7.91027
LeftHand  -0.25398 0.0180481 5.50724
RightShoulder  4.72051 13.1143 22.1207
RightArm  -10.5927 53.895 40.2078
RightForeArm  -26.5122 26.3075 6.88841
RightHand  -0.0265133 -3.71893 0.0796142
LeftUpLeg  -29.4505 26.9585 -7.91013
LeftLeg  16.1388 24.6648 -3.24157
LeftFoot  0.767808 -0.691102 6.46608
LeftToes  1.06246e-005 4.65856e-005 -8.18501e-006
110
root  -63.7055 39.8095 21.7145 -171.584 11.6103 172.259
RightUpLeg  -47.6043 -42.3111 11.1037
RightLeg  29.7362 16.9361 9.98444
RightFoot  6.71941 -4.63459 28.8542
RightToes  0.00048216 0.542163 -0.142577
Spine  48.9967 0.161831 -0.379687
Spine1  5.4753 1.90301 -2.94683
HEad  -32.7161 -16.9879 12.8511
LeftShoulder1  9.67625 -20.5721 -34.0671
LeftArm  -24.5432 -33.4212 -29.3835
LeftForeArm  -0.825859 -37.3393 -8.60121
LeftHand  -0.25398 0.0180481 5.50724
RightShoulder  4.92835 13.3285 23.0467
RightArm  -5.4269 53.1453 44.2412
RightForeArm  -27.2101 25.3928 6.69646
RightHand  -0.0372832 -4.07565 -0.674247
LeftUpLeg  -24.1169 19.6987 -2.34238
LeftLeg  14.6633 34.6798 -3.99869
LeftFoot  1.11056 -0.508802 4.61162
LeftToes  1.06246e-005 4.65856e-005 -8.18501e-006
